<svg viewBox="0 0 620 350" role="img" aria-label="Payoff with a 10% buffer and 100% downside participation" style="fill:rgb(0, 0, 0);fill-opacity:1;stroke:none;stroke-width:1px;stroke-opacity:1;stroke-dasharray:none;stroke-linecap:butt;stroke-linejoin:miter;font-family:Inter, ui-sans-serif, system-ui, -apple-system, BlinkMacSystemFont, &quot;Segoe UI&quot;, sans-serif;font-size:16px;font-weight:400;font-style:normal;text-anchor:start;letter-spacing:normal;paint-order:normal" xmlns="http://www.w3.org/2000/svg" width="620" height="350"><rect x="0" y="0" width="620" height="350" fill="#ffffff"/><defs><clipPath id="plot-clip"><rect x="50" y="35" width="540" height="275"/></clipPath></defs><line x1="50" y1="310" x2="590" y2="310" style="stroke:rgb(170, 183, 201)"/><line x1="50" y1="35" x2="50" y2="310" style="stroke:rgb(170, 183, 201)"/><line x1="50" y1="80.83333333333331" x2="590" y2="80.83333333333331" style="stroke:rgb(107, 123, 146);stroke-width:1.5px"/><!--v-if--><line x1="294.6875" y1="80.83333333333331" x2="294.6875" y2="310" style="stroke:rgb(132, 148, 171);stroke-dasharray:2px, 3px"/><line x1="320" y1="80.83333333333331" x2="320" y2="310" style="stroke:rgb(132, 148, 171);stroke-dasharray:2px, 3px"/><g clip-path="url(#plot-clip)"><polygon points="294.6875,80.83333333333331 296.796875,80.83333333333331 298.90625,80.83333333333331 301.015625,80.83333333333331 303.125,80.83333333333331 305.234375,80.83333333333331 307.34375,80.83333333333331 309.453125,80.83333333333331 311.5625,80.83333333333331 313.671875,80.83333333333331 315.78125,80.83333333333331 317.890625,80.83333333333331 317.890625,82.62369791666669 315.78125,84.4140625 313.671875,86.20442708333331 311.5625,87.99479166666669 309.453125,89.78515625 307.34375,91.57552083333331 305.234375,93.36588541666669 303.125,95.15625 301.015625,96.94661458333331 298.90625,98.73697916666669 296.796875,100.52734375 294.6875,102.31770833333331" style="fill:rgb(26, 163, 184);fill-opacity:0.16"/><polyline points="50,310 590,-148.33333333333337" style="fill:none;stroke:rgb(102, 117, 139);stroke-width:1.75px;stroke-dasharray:7px, 5px"/><polyline points="50,287.0833333333333 52.109375,285.29296875 54.21875,283.5026041666667 56.328125,281.7122395833333 58.4375,279.921875 60.546875,278.1315104166667 62.65625,276.3411458333333 64.765625,274.55078125 66.875,272.7604166666667 68.984375,270.9700520833333 71.09375,269.1796875 73.203125,267.3893229166667 75.3125,265.5989583333333 77.421875,263.80859375 79.53125,262.0182291666667 81.640625,260.2278645833333 83.75,258.4375 85.859375,256.6471354166667 87.96875,254.85677083333334 90.078125,253.06640625 92.1875,251.27604166666669 94.296875,249.48567708333331 96.40625,247.6953125 98.515625,245.90494791666669 100.625,244.11458333333331 102.734375,242.32421875 104.84375,240.53385416666666 106.953125,238.74348958333334 109.0625,236.953125 111.171875,235.16276041666666 113.28125,233.37239583333334 115.390625,231.58203125 117.5,229.79166666666666 119.609375,228.00130208333334 121.71875,226.2109375 123.828125,224.42057291666666 125.9375,222.63020833333334 128.046875,220.83984375 130.15625,219.04947916666666 132.265625,217.25911458333334 134.375,215.46875 136.484375,213.67838541666666 138.59375,211.88802083333334 140.703125,210.09765625 142.8125,208.30729166666666 144.921875,206.51692708333334 147.03125,204.7265625 149.140625,202.93619791666666 151.25,201.14583333333334 153.359375,199.35546875 155.46875,197.56510416666666 157.578125,195.77473958333334 159.6875,193.984375 161.796875,192.19401041666666 163.90625,190.40364583333334 166.015625,188.61328125 168.125,186.82291666666666 170.234375,185.03255208333334 172.34375,183.2421875 174.453125,181.45182291666666 176.5625,179.66145833333334 178.671875,177.87109375 180.78125,176.08072916666666 182.890625,174.29036458333334 185,172.5 187.109375,170.70963541666669 189.21875,168.91927083333331 191.328125,167.12890625 193.4375,165.33854166666669 195.546875,163.54817708333331 197.65625,161.7578125 199.765625,159.96744791666669 201.875,158.17708333333331 203.984375,156.38671875 206.09375,154.59635416666669 208.203125,152.80598958333331 210.3125,151.015625 212.421875,149.22526041666669 214.53125,147.43489583333331 216.640625,145.64453125 218.75,143.85416666666669 220.859375,142.06380208333331 222.96875,140.2734375 225.078125,138.48307291666669 227.1875,136.69270833333331 229.296875,134.90234375 231.40625,133.11197916666669 233.515625,131.32161458333331 235.625,129.53125 237.734375,127.74088541666669 239.84375,125.95052083333331 241.953125,124.16015625 244.0625,122.36979166666669 246.171875,120.57942708333331 248.28125,118.7890625 250.390625,116.99869791666669 252.5,115.20833333333331 254.609375,113.41796875 256.71875,111.62760416666669 258.828125,109.83723958333331 260.9375,108.046875 263.046875,106.25651041666669 265.15625,104.46614583333331 267.265625,102.67578125 269.375,100.88541666666669 271.484375,99.09505208333331 273.59375,97.3046875 275.703125,95.51432291666669 277.8125,93.72395833333331 279.921875,91.93359375 282.03125,90.14322916666669 284.140625,88.35286458333331 286.25,86.5625 288.359375,84.77213541666669 290.46875,82.98177083333331 292.578125,81.19140625 294.6875,80.83333333333331 296.796875,80.83333333333331 298.90625,80.83333333333331 301.015625,80.83333333333331 303.125,80.83333333333331 305.234375,80.83333333333331 307.34375,80.83333333333331 309.453125,80.83333333333331 311.5625,80.83333333333331 313.671875,80.83333333333331 315.78125,80.83333333333331 317.890625,80.83333333333331 320,80.83333333333331 322.109375,80.83333333333331 324.21875,80.83333333333331 326.328125,80.83333333333331 328.4375,80.83333333333331 330.546875,80.83333333333331 332.65625,80.83333333333331 334.765625,80.83333333333331 336.875,80.83333333333331 338.984375,80.83333333333331 341.09375,80.83333333333331 343.203125,80.83333333333331 345.3125,80.83333333333331 347.421875,80.83333333333331 349.53125,80.83333333333331 351.640625,80.83333333333331 353.75,80.83333333333331 355.859375,80.83333333333331 357.96875,80.83333333333331 360.078125,80.83333333333331 362.1875,80.83333333333331 364.296875,80.83333333333331 366.40625,80.83333333333331 368.515625,80.83333333333331 370.625,80.83333333333331 372.734375,80.83333333333331 374.84375,80.83333333333331 376.953125,80.83333333333331 379.0625,80.83333333333331 381.171875,80.83333333333331 383.28125,80.83333333333331 385.390625,80.83333333333331 387.5,80.83333333333331 389.609375,80.83333333333331 391.71875,80.83333333333331 393.828125,80.83333333333331 395.9375,80.83333333333331 398.046875,80.83333333333331 400.15625,80.83333333333331 402.265625,80.83333333333331 404.375,80.83333333333331 406.484375,80.83333333333331 408.59375,80.83333333333331 410.703125,80.83333333333331 412.8125,80.83333333333331 414.921875,80.83333333333331 417.03125,80.83333333333331 419.140625,80.83333333333331 421.25,80.83333333333331 423.359375,80.83333333333331 425.46875,80.83333333333331 427.578125,80.83333333333331 429.6875,80.83333333333331 431.796875,80.83333333333331 433.90625,80.83333333333331 436.015625,80.83333333333331 438.125,80.83333333333331 440.234375,80.83333333333331 442.34375,80.83333333333331 444.453125,80.83333333333331 446.5625,80.83333333333331 448.671875,80.83333333333331 450.78125,80.83333333333331 452.890625,80.83333333333331 455,80.83333333333331 457.109375,80.83333333333331 459.21875,80.83333333333331 461.328125,80.83333333333331 463.4375,80.83333333333331 465.546875,80.83333333333331 467.65625,80.83333333333331 469.765625,80.83333333333331 471.875,80.83333333333331 473.984375,80.83333333333331 476.09375,80.83333333333331 478.203125,80.83333333333331 480.3125,80.83333333333331 482.421875,80.83333333333331 484.53125,80.83333333333331 486.640625,80.83333333333331 488.75,80.83333333333331 490.859375,80.83333333333331 492.96875,80.83333333333331 495.078125,80.83333333333331 497.1875,80.83333333333331 499.296875,80.83333333333331 501.40625,80.83333333333331 503.515625,80.83333333333331 505.625,80.83333333333331 507.734375,80.83333333333331 509.84375,80.83333333333331 511.953125,80.83333333333331 514.0625,80.83333333333331 516.171875,80.83333333333331 518.28125,80.83333333333331 520.390625,80.83333333333331 522.5,80.83333333333331 524.609375,80.83333333333331 526.71875,80.83333333333331 528.828125,80.83333333333331 530.9375,80.83333333333331 533.046875,80.83333333333331 535.15625,80.83333333333331 537.265625,80.83333333333331 539.375,80.83333333333331 541.484375,80.83333333333331 543.59375,80.83333333333331 545.703125,80.83333333333331 547.8125,80.83333333333331 549.921875,80.83333333333331 552.03125,80.83333333333331 554.140625,80.83333333333331 556.25,80.83333333333331 558.359375,80.83333333333331 560.46875,80.83333333333331 562.578125,80.83333333333331 564.6875,80.83333333333331 566.796875,80.83333333333331 568.90625,80.83333333333331 571.015625,80.83333333333331 573.125,80.83333333333331 575.234375,80.83333333333331 577.34375,80.83333333333331 579.453125,80.83333333333331 581.5625,80.83333333333331 583.671875,80.83333333333331 585.78125,80.83333333333331 587.890625,80.83333333333331 590,80.83333333333331" style="fill:none;stroke:rgb(255, 255, 255);stroke-width:8px;stroke-linecap:round;stroke-linejoin:round"/><polyline points="50,287.0833333333333 52.109375,285.29296875 54.21875,283.5026041666667 56.328125,281.7122395833333 58.4375,279.921875 60.546875,278.1315104166667 62.65625,276.3411458333333 64.765625,274.55078125 66.875,272.7604166666667 68.984375,270.9700520833333 71.09375,269.1796875 73.203125,267.3893229166667 75.3125,265.5989583333333 77.421875,263.80859375 79.53125,262.0182291666667 81.640625,260.2278645833333 83.75,258.4375 85.859375,256.6471354166667 87.96875,254.85677083333334 90.078125,253.06640625 92.1875,251.27604166666669 94.296875,249.48567708333331 96.40625,247.6953125 98.515625,245.90494791666669 100.625,244.11458333333331 102.734375,242.32421875 104.84375,240.53385416666666 106.953125,238.74348958333334 109.0625,236.953125 111.171875,235.16276041666666 113.28125,233.37239583333334 115.390625,231.58203125 117.5,229.79166666666666 119.609375,228.00130208333334 121.71875,226.2109375 123.828125,224.42057291666666 125.9375,222.63020833333334 128.046875,220.83984375 130.15625,219.04947916666666 132.265625,217.25911458333334 134.375,215.46875 136.484375,213.67838541666666 138.59375,211.88802083333334 140.703125,210.09765625 142.8125,208.30729166666666 144.921875,206.51692708333334 147.03125,204.7265625 149.140625,202.93619791666666 151.25,201.14583333333334 153.359375,199.35546875 155.46875,197.56510416666666 157.578125,195.77473958333334 159.6875,193.984375 161.796875,192.19401041666666 163.90625,190.40364583333334 166.015625,188.61328125 168.125,186.82291666666666 170.234375,185.03255208333334 172.34375,183.2421875 174.453125,181.45182291666666 176.5625,179.66145833333334 178.671875,177.87109375 180.78125,176.08072916666666 182.890625,174.29036458333334 185,172.5 187.109375,170.70963541666669 189.21875,168.91927083333331 191.328125,167.12890625 193.4375,165.33854166666669 195.546875,163.54817708333331 197.65625,161.7578125 199.765625,159.96744791666669 201.875,158.17708333333331 203.984375,156.38671875 206.09375,154.59635416666669 208.203125,152.80598958333331 210.3125,151.015625 212.421875,149.22526041666669 214.53125,147.43489583333331 216.640625,145.64453125 218.75,143.85416666666669 220.859375,142.06380208333331 222.96875,140.2734375 225.078125,138.48307291666669 227.1875,136.69270833333331 229.296875,134.90234375 231.40625,133.11197916666669 233.515625,131.32161458333331 235.625,129.53125 237.734375,127.74088541666669 239.84375,125.95052083333331 241.953125,124.16015625 244.0625,122.36979166666669 246.171875,120.57942708333331 248.28125,118.7890625 250.390625,116.99869791666669 252.5,115.20833333333331 254.609375,113.41796875 256.71875,111.62760416666669 258.828125,109.83723958333331 260.9375,108.046875 263.046875,106.25651041666669 265.15625,104.46614583333331 267.265625,102.67578125 269.375,100.88541666666669 271.484375,99.09505208333331 273.59375,97.3046875 275.703125,95.51432291666669 277.8125,93.72395833333331 279.921875,91.93359375 282.03125,90.14322916666669 284.140625,88.35286458333331 286.25,86.5625 288.359375,84.77213541666669 290.46875,82.98177083333331 292.578125,81.19140625 294.6875,80.83333333333331" style="fill:none;stroke:rgb(217, 72, 15);stroke-width:4px;stroke-linecap:round;stroke-linejoin:round"/><polyline points="294.6875,80.83333333333331 296.796875,80.83333333333331 298.90625,80.83333333333331 301.015625,80.83333333333331 303.125,80.83333333333331 305.234375,80.83333333333331 307.34375,80.83333333333331 309.453125,80.83333333333331 311.5625,80.83333333333331 313.671875,80.83333333333331 315.78125,80.83333333333331 317.890625,80.83333333333331 320,80.83333333333331" style="fill:none;stroke:rgb(26, 163, 184);stroke-width:4px;stroke-linecap:round;stroke-linejoin:round"/><polyline points="320,80.83333333333331 322.109375,80.83333333333331 324.21875,80.83333333333331 326.328125,80.83333333333331 328.4375,80.83333333333331 330.546875,80.83333333333331 332.65625,80.83333333333331 334.765625,80.83333333333331 336.875,80.83333333333331 338.984375,80.83333333333331 341.09375,80.83333333333331 343.203125,80.83333333333331 345.3125,80.83333333333331 347.421875,80.83333333333331 349.53125,80.83333333333331 351.640625,80.83333333333331 353.75,80.83333333333331 355.859375,80.83333333333331 357.96875,80.83333333333331 360.078125,80.83333333333331 362.1875,80.83333333333331 364.296875,80.83333333333331 366.40625,80.83333333333331 368.515625,80.83333333333331 370.625,80.83333333333331 372.734375,80.83333333333331 374.84375,80.83333333333331 376.953125,80.83333333333331 379.0625,80.83333333333331 381.171875,80.83333333333331 383.28125,80.83333333333331 385.390625,80.83333333333331 387.5,80.83333333333331 389.609375,80.83333333333331 391.71875,80.83333333333331 393.828125,80.83333333333331 395.9375,80.83333333333331 398.046875,80.83333333333331 400.15625,80.83333333333331 402.265625,80.83333333333331 404.375,80.83333333333331 406.484375,80.83333333333331 408.59375,80.83333333333331 410.703125,80.83333333333331 412.8125,80.83333333333331 414.921875,80.83333333333331 417.03125,80.83333333333331 419.140625,80.83333333333331 421.25,80.83333333333331 423.359375,80.83333333333331 425.46875,80.83333333333331 427.578125,80.83333333333331 429.6875,80.83333333333331 431.796875,80.83333333333331 433.90625,80.83333333333331 436.015625,80.83333333333331 438.125,80.83333333333331 440.234375,80.83333333333331 442.34375,80.83333333333331 444.453125,80.83333333333331 446.5625,80.83333333333331 448.671875,80.83333333333331 450.78125,80.83333333333331 452.890625,80.83333333333331 455,80.83333333333331 457.109375,80.83333333333331 459.21875,80.83333333333331 461.328125,80.83333333333331 463.4375,80.83333333333331 465.546875,80.83333333333331 467.65625,80.83333333333331 469.765625,80.83333333333331 471.875,80.83333333333331 473.984375,80.83333333333331 476.09375,80.83333333333331 478.203125,80.83333333333331 480.3125,80.83333333333331 482.421875,80.83333333333331 484.53125,80.83333333333331 486.640625,80.83333333333331 488.75,80.83333333333331 490.859375,80.83333333333331 492.96875,80.83333333333331 495.078125,80.83333333333331 497.1875,80.83333333333331 499.296875,80.83333333333331 501.40625,80.83333333333331 503.515625,80.83333333333331 505.625,80.83333333333331 507.734375,80.83333333333331 509.84375,80.83333333333331 511.953125,80.83333333333331 514.0625,80.83333333333331 516.171875,80.83333333333331 518.28125,80.83333333333331 520.390625,80.83333333333331 522.5,80.83333333333331 524.609375,80.83333333333331 526.71875,80.83333333333331 528.828125,80.83333333333331 530.9375,80.83333333333331 533.046875,80.83333333333331 535.15625,80.83333333333331 537.265625,80.83333333333331 539.375,80.83333333333331 541.484375,80.83333333333331 543.59375,80.83333333333331 545.703125,80.83333333333331 547.8125,80.83333333333331 549.921875,80.83333333333331 552.03125,80.83333333333331 554.140625,80.83333333333331 556.25,80.83333333333331 558.359375,80.83333333333331 560.46875,80.83333333333331 562.578125,80.83333333333331 564.6875,80.83333333333331 566.796875,80.83333333333331 568.90625,80.83333333333331 571.015625,80.83333333333331 573.125,80.83333333333331 575.234375,80.83333333333331 577.34375,80.83333333333331 579.453125,80.83333333333331 581.5625,80.83333333333331 583.671875,80.83333333333331 585.78125,80.83333333333331 587.890625,80.83333333333331 590,80.83333333333331" style="fill:none;stroke:rgb(66, 83, 109);stroke-width:4px;stroke-linecap:round;stroke-linejoin:round"/></g><!--v-if--><line x1="279.5" y1="92.29166666666669" x2="279.5" y2="310" style="stroke:rgb(23, 36, 58);stroke-width:1.5px;stroke-opacity:0.55;stroke-dasharray:4px, 4px"/><g><line x1="46" y1="310" x2="50" y2="310" style="stroke:rgb(170, 183, 201)"/><text x="43" y="310" text-anchor="end" dominant-baseline="middle" style="fill:rgb(90, 106, 130);font-size:12.7715px;text-anchor:end;dominant-baseline:middle">0</text></g><g><line x1="46" y1="264.1666666666667" x2="50" y2="264.1666666666667" style="stroke:rgb(170, 183, 201)"/><text x="43" y="264.1666666666667" text-anchor="end" dominant-baseline="middle" style="fill:rgb(90, 106, 130);font-size:12.7715px;text-anchor:end;dominant-baseline:middle">200</text></g><g><line x1="46" y1="218.33333333333334" x2="50" y2="218.33333333333334" style="stroke:rgb(170, 183, 201)"/><text x="43" y="218.33333333333334" text-anchor="end" dominant-baseline="middle" style="fill:rgb(90, 106, 130);font-size:12.7715px;text-anchor:end;dominant-baseline:middle">400</text></g><g><line x1="46" y1="172.5" x2="50" y2="172.5" style="stroke:rgb(170, 183, 201)"/><text x="43" y="172.5" text-anchor="end" dominant-baseline="middle" style="fill:rgb(90, 106, 130);font-size:12.7715px;text-anchor:end;dominant-baseline:middle">600</text></g><g><line x1="46" y1="126.66666666666669" x2="50" y2="126.66666666666669" style="stroke:rgb(170, 183, 201)"/><text x="43" y="126.66666666666669" text-anchor="end" dominant-baseline="middle" style="fill:rgb(90, 106, 130);font-size:12.7715px;text-anchor:end;dominant-baseline:middle">800</text></g><g><line x1="46" y1="80.83333333333331" x2="50" y2="80.83333333333331" style="stroke:rgb(170, 183, 201)"/><text x="43" y="80.83333333333331" text-anchor="end" dominant-baseline="middle" style="fill:rgb(90, 106, 130);font-size:12.7715px;text-anchor:end;dominant-baseline:middle">1K</text></g><g><line x1="46" y1="35" x2="50" y2="35" style="stroke:rgb(170, 183, 201)"/><text x="43" y="35" text-anchor="end" dominant-baseline="middle" style="fill:rgb(90, 106, 130);font-size:12.7715px;text-anchor:end;dominant-baseline:middle">1.2K</text></g><text x="52" y="24" style="fill:rgb(90, 106, 130);font-size:12.7715px">Payment</text><line x1="54" y1="70.83333333333331" x2="66" y2="70.83333333333331" style="stroke:rgb(107, 123, 146);stroke-width:3px;stroke-linecap:round"/><text x="70" y="74.83333333333331" style="fill:rgb(23, 36, 58);stroke:rgb(255, 255, 255);stroke-width:3px;stroke-linejoin:round;font-size:12.7715px;font-weight:600;paint-order:stroke">Principal 1,000</text><text x="50" y="331" text-anchor="middle" style="fill:rgb(90, 106, 130);font-size:12.7715px;text-anchor:middle">−100%</text><text x="103.99999999999999" y="331" text-anchor="middle" style="fill:rgb(90, 106, 130);font-size:12.7715px;text-anchor:middle">−80%</text><text x="158" y="331" text-anchor="middle" style="fill:rgb(90, 106, 130);font-size:12.7715px;text-anchor:middle">−60%</text><text x="212" y="331" text-anchor="middle" style="fill:rgb(90, 106, 130);font-size:12.7715px;text-anchor:middle">−40%</text><text x="266" y="331" text-anchor="middle" style="fill:rgb(90, 106, 130);font-size:12.7715px;text-anchor:middle">−20%</text><text x="320" y="331" text-anchor="middle" style="fill:rgb(23, 36, 58);font-size:12.7715px;font-weight:700;text-anchor:middle">0%</text><text x="374" y="331" text-anchor="middle" style="fill:rgb(90, 106, 130);font-size:12.7715px;text-anchor:middle">+20%</text><text x="428" y="331" text-anchor="middle" style="fill:rgb(90, 106, 130);font-size:12.7715px;text-anchor:middle">+40%</text><text x="482" y="331" text-anchor="middle" style="fill:rgb(90, 106, 130);font-size:12.7715px;text-anchor:middle">+60%</text><text x="536" y="331" text-anchor="middle" style="fill:rgb(90, 106, 130);font-size:12.7715px;text-anchor:middle">+80%</text><text x="590" y="331" text-anchor="middle" style="fill:rgb(90, 106, 130);font-size:12.7715px;text-anchor:middle">+100%</text><g aria-hidden="true"><path d="M317.34375,102.83333333333331 L307.34375,80.83333333333331" style="fill:none;stroke:rgb(66, 83, 109)"/><text x="320.34375" y="116.92696629213481" style="fill:rgb(23, 36, 58);stroke:rgb(255, 255, 255);stroke-width:3px;stroke-linejoin:round;font-size:12.7715px;font-weight:800;paint-order:stroke">A fall of up to 10% repays</text><text x="320.34375" y="132.0205992509363" style="fill:rgb(23, 36, 58);stroke:rgb(255, 255, 255);stroke-width:3px;stroke-linejoin:round;font-size:12.7715px;font-weight:800;paint-order:stroke">principal</text></g><g aria-hidden="true"><path d="M182.34375,205.2421875 L172.34375,183.2421875" style="fill:none;stroke:rgb(66, 83, 109)"/><text x="185.34375" y="219.3358204588015" style="fill:rgb(23, 36, 58);stroke:rgb(255, 255, 255);stroke-width:3px;stroke-linejoin:round;font-size:12.7715px;font-weight:600;paint-order:stroke">A fall past 10% loses 1%</text><text x="185.34375" y="234.42945341760299" style="fill:rgb(23, 36, 58);stroke:rgb(255, 255, 255);stroke-width:3px;stroke-linejoin:round;font-size:12.7715px;font-weight:600;paint-order:stroke">per 1% beyond it</text></g><g aria-hidden="true"><path d="M455,58.833333333333314 L455,80.83333333333331" style="fill:none;stroke:rgb(66, 83, 109)"/><text x="375.8164794007491" y="53.833333333333314" style="fill:rgb(23, 36, 58);stroke:rgb(255, 255, 255);stroke-width:3px;stroke-linejoin:round;font-size:12.7715px;font-weight:600;paint-order:stroke">Repays principal 1,000</text></g><g transform="translate(215.7696629213483 58.291666666666686)"><rect width="127.46067415730337" height="22" rx="6" style="fill:rgb(23, 36, 58)"/><text x="63.73033707865169" y="15" text-anchor="middle" style="fill:rgb(255, 255, 255);font-size:12.7715px;font-weight:650;text-anchor:middle">−15% (85) → 950</text></g><!--v-if--><!--v-if--><!--v-if--><!--v-if--><!--v-if--><!--v-if--><!--v-if--><g transform="translate(279.5 92.29166666666669)" role="slider" aria-label="Hypothetical final level of Synthetic Index" aria-valuemin="0" aria-valuemax="200" aria-valuenow="85" aria-valuetext="Final level 85, payment 950"><circle r="13" style="fill:none;stroke:rgb(23, 36, 58);stroke-width:2px;opacity:0"/><circle r="25.543071161048687" fill="transparent" style="fill:rgba(0, 0, 0, 0)"/><circle r="8" style="fill:rgb(23, 36, 58);stroke:rgb(255, 255, 255);stroke-width:3px"/></g></svg>
